<svg xmlns="http://www.w3.org/2000/svg" enable-background="new 0 0 24 24" viewBox="0 0 24 24"><path fill="#303c42" d="M20.487 16.216c.321-.632.513-1.29.513-1.716V10c0-4.033-2.86-10-9-10a.504.504 0 0 0-.354.146l-.356.356C5.847.62 3 5.338 3 10v4.5c0 .425.192 1.083.513 1.716C2.235 17.957 1 20.252 1 21.5a.5.5 0 0 0 .854.354c.258-.258.741-.491 1.156-.655.039.774.188 1.921.712 2.461.216.222.486.34.778.34a.5.5 0 0 0 .494-.425c.004-.027.351-2.287.867-4.628C7.903 22.256 10.286 23 12 23s4.097-.744 6.139-4.052c.517 2.34.863 4.601.867 4.628A.5.5 0 0 0 19.5 24c.292 0 .562-.118.778-.34.525-.54.674-1.687.712-2.461.415.165.898.397 1.156.655A.5.5 0 0 0 23 21.5c0-1.248-1.235-3.543-2.513-5.284z"/><path fill="#e57373" d="M11.5 1.5c.133 0 .26-.053.354-.146l.351-.351C17.521 1.135 20 6.416 20 10v2.2c-.005-.003-.008-.007-.013-.009-.279-3.399-5.041-6.017-5.249-6.13a.499.499 0 0 0-.369-.043c-1.03.279-9.822 2.757-10.345 6.166-.009.005-.016.012-.024.018V10c0-4.094 2.347-8.5 7.5-8.5z"/><path fill="#fff" d="M4.649 10.649c0-4.094 2.347-8.5 7.5-8.5.133 0 .26-.053.354-.146l.351-.351c1.93.048 3.482.78 4.681 1.858-1.267-1.428-3.032-2.45-5.33-2.507l-.351.351a.5.5 0 0 1-.354.146C6.347 1.5 4 5.906 4 10v2.201l.024-.018c.07-.457.297-.895.625-1.315v-.219z" enable-background="new" opacity=".2"/><path fill="#e57373" d="M4.178 22.375c-.14-.553-.192-1.33-.178-1.861a.498.498 0 0 0-.636-.494 8.085 8.085 0 0 0-1.113.415c.346-.929 1.03-2.152 1.849-3.315.286.343.617.61.982.754a75.39 75.39 0 0 0-.904 4.501z"/><path fill="#fff" d="M4.312 17.327c-.07-.07-.146-.128-.211-.207-.82 1.162-1.503 2.386-1.849 3.315.207-.096.399-.171.573-.235.339-.859.862-1.87 1.487-2.873z" enable-background="new" opacity=".2"/><path fill="#fee8d7" d="M12 22c-2.348 0-4.326-1.557-5.879-4.627l-.051-.101A.501.501 0 0 0 5.625 17C4.927 17 4 15.285 4 14.5c0-1.031.268-1.354.699-1.542A.499.499 0 0 0 5 12.5c0-2.081 5.702-4.424 9.433-5.463C15.281 7.535 19 9.865 19 12.5c0 .199.118.379.301.458.431.188.699.511.699 1.542 0 .785-.927 2.5-1.625 2.5a.5.5 0 0 0-.445.272l-.051.101C16.326 20.443 14.348 22 12 22z"/><path d="M19.301 12.958A.499.499 0 0 1 19 12.5c0-2.635-3.719-4.965-4.567-5.463-.069.019-.143.042-.213.062.875.599 3.906 2.855 3.906 5.401 0 .199.103.379.263.458.377.188.611.511.611 1.542 0 .785-.811 2.5-1.422 2.5a.437.437 0 0 0-.39.272l-.044.101C15.785 20.443 14.054 22 12 22c2.348 0 4.326-1.557 5.879-4.627l.051-.101a.501.501 0 0 1 .445-.272C19.073 17 20 15.285 20 14.5c0-1.031-.268-1.354-.699-1.542z" enable-background="new" opacity=".1"/><path fill="#fff" d="m6.856 17.373-.044-.101a.437.437 0 0 0-.39-.272C5.811 17 5 15.285 5 14.5c0-1.031.234-1.354.612-1.542a.505.505 0 0 0 .263-.458c0-1.661 3.181-3.489 6.125-4.687-3.365 1.198-7 3.026-7 4.687a.499.499 0 0 1-.301.458C4.268 13.146 4 13.469 4 14.5c0 .785.927 2.5 1.625 2.5.187 0 .359.105.445.272l.051.101C7.674 20.443 9.652 22 12 22c-2.054 0-3.785-1.557-5.144-4.627z" enable-background="new" opacity=".2"/><path fill="#e57373" d="M20.636 20.019a.5.5 0 0 0-.636.494c.014.516-.035 1.265-.184 1.825a75.16 75.16 0 0 0-.898-4.466c.365-.144.696-.411.982-.754.82 1.162 1.503 2.386 1.849 3.315a8.115 8.115 0 0 0-1.113-.414z"/><linearGradient id="a" x1="18.46" x2="21.156" y1="5.67" y2="2.974" gradientTransform="matrix(1 0 0 -1 0 24)" gradientUnits="userSpaceOnUse"><stop offset="0" stop-opacity=".1"/><stop offset="1" stop-opacity="0"/></linearGradient><path fill="url(#a)" d="M20.636 20.019a.5.5 0 0 0-.636.494c.014.516-.035 1.265-.184 1.825a75.16 75.16 0 0 0-.898-4.466c.365-.144.696-.411.982-.754.82 1.162 1.503 2.386 1.849 3.315a8.115 8.115 0 0 0-1.113-.414z"/><path fill="#303c42" d="M16.5 12h-1c-.551 0-1 .449-1 1s.449 1 1 1c.551 0 1-.449 1-1a.5.5 0 0 0 0-1zM8.5 12h-1a.5.5 0 0 0 0 1c0 .551.449 1 1 1s1-.449 1-1-.449-1-1-1z"/><linearGradient id="b" x1="2.365" x2="24.196" y1="15.134" y2="4.954" gradientTransform="matrix(1 0 0 -1 0 24)" gradientUnits="userSpaceOnUse"><stop offset="0" stop-color="#fff" stop-opacity=".2"/><stop offset="1" stop-color="#fff" stop-opacity="0"/></linearGradient><path fill="url(#b)" d="M20.487 16.216c.321-.632.513-1.29.513-1.716V10c0-4.033-2.86-10-9-10a.504.504 0 0 0-.354.146l-.356.356C5.847.62 3 5.338 3 10v4.5c0 .425.192 1.083.513 1.716C2.235 17.957 1 20.252 1 21.5a.5.5 0 0 0 .854.354c.258-.258.741-.491 1.156-.655.039.774.188 1.921.712 2.461.216.222.486.34.778.34a.5.5 0 0 0 .494-.425c.004-.027.351-2.287.867-4.628C7.903 22.256 10.286 23 12 23s4.097-.744 6.139-4.052c.517 2.34.863 4.601.867 4.628A.5.5 0 0 0 19.5 24c.292 0 .562-.118.778-.34.525-.54.674-1.687.712-2.461.415.165.898.397 1.156.655A.5.5 0 0 0 23 21.5c0-1.248-1.235-3.543-2.513-5.284z"/></svg>