<svg xmlns="http://www.w3.org/2000/svg" viewBox="0 0 24 24"><path fill="#303c42" d="M13 0c-1.174 0-1.861.32-2.157.502C6.164.604 1 5.274 1 11.5c0 6.345 1.976 10.082 2.06 10.237.038.07.091.13.157.175.111.076 1.197.742 5.338.992C9.796 23.749 11.01 24 12 24s2.204-.251 3.445-1.096c4.141-.25 5.227-.916 5.338-.992a.508.508 0 0 0 .157-.175C21.024 21.581 23 17.844 23 11.5 23 5.023 17.625 0 13 0z"/><path fill="#fee8d7" d="m6.121 18.373-.051-.101A.501.501 0 0 0 5.625 18C4.927 18 4 16.285 4 15.5c0-.963.233-1.309.617-1.502.621-.028 1.472-.273 2.417-.665A.483.483 0 0 0 7 13.5a.5.5 0 0 0 .5.5c0 .551.449 1 1 1s1-.449 1-1-.449-1-1-1h-.721c2.42-1.147 5.224-3.117 6.51-5.044.781 2.855 3.015 5.928 5.093 6.041.384.194.618.54.618 1.503 0 .785-.927 2.5-1.625 2.5a.5.5 0 0 0-.445.272l-.051.101C16.326 21.443 14.348 23 12 23s-4.326-1.557-5.879-4.627z"/><path d="M19.382 13.997c-2.078-.113-4.312-3.186-5.093-6.041-.062.093-.143.186-.212.279.74 2.773 2.623 5.653 4.383 5.762.336.194.54.54.54 1.503 0 .785-.811 2.5-1.422 2.5a.437.437 0 0 0-.39.272l-.044.101C15.785 21.443 14.054 23 12 23c2.348 0 4.326-1.557 5.879-4.627l.051-.101a.501.501 0 0 1 .445-.272C19.073 18 20 16.285 20 15.5c0-.964-.234-1.309-.618-1.503z" opacity=".1"/><path fill="#fff" d="m6.856 18.373-.044-.101a.437.437 0 0 0-.39-.272C5.811 18 5 16.285 5 15.5c0-.963.204-1.309.54-1.502.4-.02.911-.16 1.482-.389-.008-.036-.022-.07-.022-.109 0-.06.015-.115.034-.168-.945.393-1.796.638-2.417.665-.384.194-.617.54-.617 1.503 0 .785.927 2.5 1.625 2.5.187 0 .359.105.445.272l.051.101C7.674 21.443 9.652 23 12 23c-2.054 0-3.785-1.557-5.144-4.627z" opacity=".2"/><path fill="#6d4c41" d="M20.126 21.13c-.283.124-1.221.452-3.391.667.678-.712 1.344-1.633 1.966-2.835C20.047 18.648 21 16.468 21 15.5c0-.882-.148-1.958-1.301-2.458A.49.49 0 0 0 19.5 13C17.649 13 15 8.878 15 6a.5.5 0 0 0-1 0c0 2.581-7.007 7-9.5 7a.49.49 0 0 0-.199.042C3.148 13.542 3 14.618 3 15.5c0 .968.953 3.148 2.299 3.462.622 1.202 1.289 2.123 1.966 2.835-2.185-.217-3.12-.547-3.39-.665C3.537 20.429 2 16.932 2 11.5c0-6.196 5.242-10 9-10a.526.526 0 0 0 .314-.111C11.32 1.385 11.829 1 13 1c4.077 0 9 4.684 9 10.5 0 5.427-1.534 8.922-1.874 9.63z"/><path fill="#fff" d="M2.5 12c0-6.196 5.242-10 9-10a.526.526 0 0 0 .314-.111c.005-.004.514-.389 1.686-.389 1.781 0 3.723.894 5.346 2.386C17.132 2.1 14.969 1 13 1c-1.171 0-1.68.385-1.686.389A.529.529 0 0 1 11 1.5c-3.758 0-9 3.804-9 10 0 5.432 1.537 8.929 1.875 9.632.066.029.174.071.328.121C3.686 20.051 2.5 16.774 2.5 12z" opacity=".2"/><path fill="#303c42" d="M16.5 14a.5.5 0 0 0 0-1h-1c-.551 0-1 .449-1 1s.449 1 1 1c.551 0 1-.449 1-1z"/><linearGradient id="a" x1="1.677" x2="22.926" y1="7.587" y2="17.495" gradientUnits="userSpaceOnUse"><stop offset="0" stop-color="#fff" stop-opacity=".2"/><stop offset="1" stop-color="#fff" stop-opacity="0"/></linearGradient><path fill="url(#a)" d="M13 0c-1.174 0-1.861.32-2.157.502C6.164.604 1 5.274 1 11.5c0 6.345 1.976 10.082 2.06 10.237.038.07.091.13.157.175.111.076 1.197.742 5.338.992C9.796 23.749 11.01 24 12 24s2.204-.251 3.445-1.096c4.141-.25 5.227-.916 5.338-.992a.508.508 0 0 0 .157-.175C21.024 21.581 23 17.844 23 11.5 23 5.023 17.625 0 13 0z"/></svg>