<svg xmlns="http://www.w3.org/2000/svg" enable-background="new 0 0 24 24" viewBox="0 0 24 24"><path fill="#303c42" d="m23.945 21.273-.508-.987C22.022 17.554 21 15.58 21 12c0-1.965-.631-4.067-1.729-5.808l.719-3.594a.5.5 0 0 0-.242-.532C19.601 1.981 16.086 0 12 0S4.399 1.981 4.252 2.066a.498.498 0 0 0-.242.532l.702 3.511C3.625 7.759 3 9.889 3 12c0 3.58-1.022 5.554-2.437 8.286l-.508.987a.497.497 0 0 0 .261.691c.08.032 2.021.776 8.301.982C9.836 23.757 11.026 24 12 24s2.164-.243 3.385-1.054c6.28-.206 8.221-.949 8.301-.981a.502.502 0 0 0 .259-.692z"/><path fill="#4e342e" d="M20.046 13.233a2.197 2.197 0 0 0-.347-.191A.49.49 0 0 0 19.5 13c-1.559 0-3.742-2.963-4.341-5.719 1.789.287 3.177.692 3.199.698a.493.493 0 0 0 .4-.051.497.497 0 0 0 .198-.251C19.625 9.043 20 10.563 20 12c0 .433.019.839.046 1.233z"/><path fill="#bbdefb" d="M12 1c3.141 0 6.005 1.299 6.937 1.769l-.822 4.107C17.031 6.593 14.461 6 12 6s-5.031.593-6.115.876l-.822-4.107C5.995 2.299 8.859 1 12 1z"/><path fill="#ffd54f" d="M5.012 7.604a.497.497 0 0 0 .63.375C5.675 7.97 8.987 7 12 7c.547 0 1.104.033 1.649.085C12.199 9.73 6.596 13 4.5 13a.49.49 0 0 0-.199.042 2.28 2.28 0 0 0-.347.191c.027-.394.046-.8.046-1.233 0-1.537.366-3.077 1.012-4.396z"/><path fill="#4e342e" d="M5.012 7.604a.497.497 0 0 0 .63.375C5.675 7.97 8.987 7 12 7c.547 0 1.104.033 1.649.085C12.199 9.73 6.596 13 4.5 13a.49.49 0 0 0-.199.042 2.28 2.28 0 0 0-.347.191c.027-.394.046-.8.046-1.233 0-1.537.366-3.077 1.012-4.396zM1.451 20.746c.725-1.4 1.37-2.652 1.831-4.046.375.973 1.101 2.049 2.018 2.263.65 1.255 1.347 2.207 2.055 2.931-3.455-.17-5.31-.509-6.131-.706l.227-.442z"/><path fill="#ffe69b" d="m6.121 18.373-.051-.101A.501.501 0 0 0 5.625 18C4.927 18 4 16.285 4 15.5c0-.963.233-1.309.616-1.502.631-.027 1.479-.271 2.417-.661a.499.499 0 0 0-.033.164.5.5 0 0 0 .5.5c0 .551.449 1 1 1s1-.449 1-1-.449-1-1-1h-.716c2.434-1.159 5.236-3.154 6.507-5.055.778 2.873 3.005 5.938 5.092 6.051.383.194.617.539.617 1.503 0 .785-.927 2.5-1.625 2.5a.5.5 0 0 0-.445.272l-.051.101C16.326 21.443 14.348 23 12 23s-4.326-1.557-5.879-4.627z"/><path fill="#ffd54f" d="M16.645 21.893c.708-.724 1.406-1.676 2.055-2.931.917-.214 1.642-1.29 2.018-2.263.461 1.394 1.106 2.646 1.831 4.046l.227.441c-.823.198-2.677.537-6.131.707z"/><path fill="#303c42" d="M10.5 4h1v1a.5.5 0 0 0 1 0V4h1a.5.5 0 0 0 0-1h-1V2a.5.5 0 0 0-1 0v1h-1a.5.5 0 0 0 0 1zM16.5 14.001a.5.5 0 0 0 0-1h-1c-.551 0-1 .449-1 1s.449 1 1 1c.551 0 1-.449 1-1z"/><path d="M19.382 13.996c-2.078-.113-4.312-3.186-5.093-6.041-.062.093-.143.186-.212.279.74 2.773 2.623 5.653 4.383 5.762.336.194.54.54.54 1.503 0 .785-.811 2.5-1.422 2.5a.437.437 0 0 0-.39.272l-.044.101C15.785 21.443 14.054 23 12 23c2.348 0 4.326-1.557 5.879-4.627l.051-.101a.501.501 0 0 1 .445-.272C19.073 18 20 16.285 20 15.5c0-.964-.234-1.31-.618-1.504z" enable-background="new" opacity=".1"/><path fill="#fff" d="m6.856 18.373-.044-.101a.435.435 0 0 0-.39-.272C5.811 18 5 16.284 5 15.5c0-.963.204-1.309.54-1.502.4-.02.911-.16 1.482-.389C7.014 13.572 7 13.538 7 13.5c0-.06.015-.115.034-.168-.945.393-1.796.638-2.417.665-.384.194-.617.539-.617 1.503 0 .785.927 2.5 1.625 2.5.187 0 .359.105.445.272l.051.101C7.674 21.443 9.652 23 12 23c-2.054 0-3.785-1.557-5.144-4.627zM3.954 13.232c.105-.07.218-.135.347-.191A.506.506 0 0 1 4.5 13c.065 0 .145-.015.216-.021.001-.087.01-.164.01-.253 0-1.664.395-3.374 1.201-4.824-.174.047-.279.077-.285.079a.5.5 0 0 1-.63-.375 10.07 10.07 0 0 0-.941 3.227l-.005.046C4.023 11.249 4 11.625 4 12c0 .433-.019.839-.046 1.232zM3.864 17.813c-.24-.35-.437-.74-.582-1.114-.461 1.394-1.106 2.646-1.831 4.046l-.227.441c.237.057.573.126.996.199.638-1.232 1.206-2.36 1.644-3.572z" enable-background="new" opacity=".2"/><path fill="#4e342e" d="M16.645 21.893c.708-.724 1.406-1.676 2.055-2.931.917-.214 1.642-1.29 2.018-2.263.461 1.394 1.106 2.646 1.831 4.046l.227.441c-.823.197-2.677.536-6.131.707z"/><linearGradient id="a" x1="1.396" x2="25.188" y1="16.028" y2="4.934" gradientTransform="matrix(1 0 0 -1 0 24)" gradientUnits="userSpaceOnUse"><stop offset="0" stop-color="#fff" stop-opacity=".2"/><stop offset="1" stop-color="#fff" stop-opacity="0"/></linearGradient><path fill="url(#a)" d="m23.945 21.273-.508-.987C22.022 17.554 21 15.58 21 12c0-1.965-.631-4.067-1.729-5.808l.719-3.594a.5.5 0 0 0-.242-.532C19.601 1.981 16.086 0 12 0S4.399 1.981 4.252 2.066a.498.498 0 0 0-.242.532l.702 3.511C3.625 7.759 3 9.889 3 12c0 3.58-1.022 5.554-2.437 8.286l-.508.987a.497.497 0 0 0 .261.691c.08.032 2.021.776 8.301.982C9.836 23.757 11.026 24 12 24s2.164-.243 3.385-1.054c6.28-.206 8.221-.949 8.301-.981a.502.502 0 0 0 .259-.692z"/></svg>