<svg xmlns="http://www.w3.org/2000/svg" viewBox="0 0 24 24"><path fill="#303c42" d="M20.5 18.5c0-.411.242-.911.522-1.49.436-.9.978-2.019.978-3.51C22 8.94 19.282 0 13 0c-1.57 0-2.398.646-2.737 1.004C4.249 1.197 2 8.729 2 13.5c0 1.491.542 2.61.978 3.51.28.579.522 1.08.522 1.49 0 1.146-.456 1.749-.854 2.146a.502.502 0 0 0 .084.775c1.068.682 1.787.551 2.215.472.081-.015.192-.035.2-.04a.387.387 0 0 1 .02.021c-.068.13-.165.334-.165.626a.499.499 0 0 0 .659.475c.757-.253 2.119-.036 3.24.15A6 6 0 0 0 12 24c.898 0 1.981-.207 3.102-.876 1.121-.185 2.482-.403 3.24-.15a.502.502 0 0 0 .659-.475c0-.272-.085-.469-.172-.637.042-.005.146.016.226.031.429.078 1.147.209 2.215-.472a.502.502 0 0 0 .084-.775c-.398-.397-.854-1-.854-2.146z"/><path fill="#4d4d4d" d="M10.5 2c.166 0 .326-.09.419-.228C10.94 1.741 11.459 1 13 1c5.327 0 8 8.014 8 12.5 0 .353-.042.677-.104.988-.142-.582-.468-1.13-1.197-1.446A.49.49 0 0 0 19.5 13C17.649 13 15 8.878 15 6a.5.5 0 0 0-1 0c0 2.581-7.007 7-9.5 7a.49.49 0 0 0-.199.042c-.729.317-1.055.864-1.197 1.446A4.99 4.99 0 0 1 3 13.5C3 9.748 4.833 2 10.5 2zM6.203 21.87c.007-.212-.078-.452-.35-.723-.369-.368-.785-.293-1.087-.237-.262.047-.55.101-.976-.062.37-.508.703-1.241.708-2.326.247.208.512.373.801.441.653 1.262 1.354 2.218 2.066 2.943a7.378 7.378 0 0 0-1.162-.036z"/><path fill="#fff" d="M11 2.5c.166 0 .326-.09.419-.228.021-.032.54-.772 2.081-.772 1.492 0 2.768.643 3.844 1.647C16.174 1.852 14.729 1 13 1c-1.541 0-2.06.741-2.081.772A.515.515 0 0 1 10.5 2C4.833 2 3 9.748 3 13.5c0 .353.042.677.104.988.074-.303.202-.595.407-.852C3.621 9.773 5.506 2.5 11 2.5zM4.416 20.952c.281-.51.508-1.196.559-2.12a2.402 2.402 0 0 1-.477-.31c-.005 1.086-.338 1.819-.708 2.326.249.095.449.113.626.104z" opacity=".2"/><path fill="#8d6e63" d="m6.121 18.373-.051-.101A.501.501 0 0 0 5.625 18C4.927 18 4 16.285 4 15.5c0-.963.233-1.309.617-1.502.621-.028 1.472-.273 2.417-.665A.483.483 0 0 0 7 13.5a.5.5 0 0 0 .5.5c0 .551.449 1 1 1s1-.449 1-1-.449-1-1-1h-.721c2.42-1.147 5.224-3.117 6.51-5.044.781 2.855 3.015 5.928 5.093 6.041.384.194.618.54.618 1.503 0 .785-.927 2.5-1.625 2.5a.5.5 0 0 0-.445.272l-.051.101C16.326 21.443 14.348 23 12 23s-4.326-1.557-5.879-4.627z"/><path d="M19.382 13.997c-2.078-.113-4.312-3.186-5.093-6.041-.062.093-.143.186-.212.279.74 2.773 2.623 5.653 4.383 5.762.336.194.54.54.54 1.503 0 .785-.811 2.5-1.422 2.5a.437.437 0 0 0-.39.272l-.044.101C15.785 21.443 14.054 23 12 23c2.348 0 4.326-1.557 5.879-4.627l.051-.101a.501.501 0 0 1 .445-.272C19.073 18 20 16.285 20 15.5c0-.964-.234-1.309-.618-1.503z" opacity=".1"/><path fill="#fff" d="m6.856 18.373-.044-.101a.437.437 0 0 0-.39-.272C5.811 18 5 16.285 5 15.5c0-.963.204-1.309.54-1.502.4-.02.911-.16 1.482-.389-.008-.036-.022-.07-.022-.109 0-.06.015-.115.034-.168-.945.393-1.796.638-2.417.665-.384.194-.617.54-.617 1.503 0 .785.927 2.5 1.625 2.5.187 0 .359.105.445.272l.051.101C7.674 21.443 9.652 23 12 23c-2.054 0-3.785-1.557-5.144-4.627z" opacity=".2"/><path fill="#4d4d4d" d="M19.234 20.91c-.303-.056-.719-.131-1.087.237-.271.271-.357.511-.35.723a7.517 7.517 0 0 0-1.163.036c.712-.725 1.414-1.681 2.067-2.943.289-.067.554-.232.801-.441.005 1.086.338 1.819.708 2.326-.428.162-.715.109-.976.062z"/><linearGradient id="a" x1="17.759" x2="19.456" y1="4.095" y2="2.398" gradientTransform="matrix(1 0 0 -1 0 24)" gradientUnits="userSpaceOnUse"><stop offset="0" stop-opacity=".1"/><stop offset="1" stop-opacity="0"/></linearGradient><path fill="url(#a)" d="M19.234 20.91c-.303-.056-.719-.131-1.087.237-.271.271-.357.511-.35.723a7.517 7.517 0 0 0-1.163.036c.712-.725 1.414-1.681 2.067-2.943.289-.067.554-.232.801-.441.005 1.086.338 1.819.708 2.326-.428.162-.715.109-.976.062z"/><path fill="#303c42" d="M16.5 14a.5.5 0 0 0 0-1h-1c-.551 0-1 .449-1 1s.449 1 1 1c.551 0 1-.449 1-1z"/><linearGradient id="b" x1="2.653" x2="23.108" y1="15.875" y2="6.337" gradientTransform="matrix(1 0 0 -1 0 24)" gradientUnits="userSpaceOnUse"><stop offset="0" stop-color="#fff" stop-opacity=".2"/><stop offset="1" stop-color="#fff" stop-opacity="0"/></linearGradient><path fill="url(#b)" d="M20.5 18.5c0-.411.242-.911.522-1.49.436-.9.978-2.019.978-3.51C22 8.94 19.282 0 13 0c-1.57 0-2.398.646-2.737 1.004C4.249 1.197 2 8.729 2 13.5c0 1.491.542 2.61.978 3.51.28.579.522 1.08.522 1.49 0 1.146-.456 1.749-.854 2.146a.502.502 0 0 0 .084.775c1.068.682 1.787.551 2.215.472.081-.015.192-.035.2-.04a.387.387 0 0 1 .02.021c-.068.13-.165.334-.165.626a.499.499 0 0 0 .659.475c.757-.253 2.119-.036 3.24.15A6 6 0 0 0 12 24c.898 0 1.981-.207 3.102-.876 1.121-.185 2.482-.403 3.24-.15a.502.502 0 0 0 .659-.475c0-.272-.085-.469-.172-.637.042-.005.146.016.226.031.429.078 1.147.209 2.215-.472a.502.502 0 0 0 .084-.775c-.398-.397-.854-1-.854-2.146z"/></svg>