<svg xmlns="http://www.w3.org/2000/svg" viewBox="0 0 24 24"><path fill="#303c42" d="M20.108 12.282c.163-.535.392-1.578.392-3.282 0-1.919-.199-2.902-.39-3.403l.743-.743a.5.5 0 0 0 0-.707C20.726 4.018 17.644 1 12 1c-2.188 0-3.343.735-3.717 1.029-.86.156-4.847 1.143-4.847 5.971 0 1.239.36 3.404.51 4.247C3.11 12.828 3 13.791 3 14.5c0 .958.889 3.104 2.15 3.452l.04.1C5.735 19.405 7.183 23 12 23s6.265-3.595 6.81-4.949l.04-.1c1.262-.348 2.15-2.494 2.15-3.452 0-.693-.103-1.633-.892-2.217z"/><path fill="#6d4c41" d="M8.556 2.997a.528.528 0 0 0 .294-.139C8.858 2.849 9.775 2 12 2c4.133 0 6.817 1.778 7.766 2.528l-.619.619c-.195.195-.23.472-.035.667.017.023.389.604.389 3.187 0 .339-.01.649-.026.931a6.601 6.601 0 0 0-2.718-3.066 7.077 7.077 0 0 0-3.646-.985c-1.375 0-2.812.37-4.21 1.106-1.231-.12-2.27.189-3.091.914-.578.51-.972 1.158-1.239 1.806-.077-.626-.134-1.244-.134-1.706 0-4.478 3.951-4.985 4.119-5.004z"/><path fill="#fff" d="M5.088 8.652c0-4.477 3.951-4.984 4.119-5.003a.528.528 0 0 0 .294-.139c.009-.009.926-.858 3.15-.858 3.331 0 5.702 1.149 7 1.99l.114-.114C18.817 3.778 16.133 2 12 2c-2.225 0-3.142.849-3.15.858a.528.528 0 0 1-.294.139c-.168.019-4.119.526-4.119 5.003 0 .462.057 1.079.134 1.706.137-.332.309-.663.52-.976l-.003-.078z" opacity=".2"/><path fill="#ffe69b" d="M18.5 17a.499.499 0 0 0-.45.283c-.047.096-.102.23-.167.395C17.361 18.971 16.142 22 12 22s-5.361-3.029-5.883-4.322a5.869 5.869 0 0 0-.167-.395A.499.499 0 0 0 5.5 17C4.872 17 4 15.264 4 14.5c0-1.071.341-1.376.71-1.546l-.001-.003A.496.496 0 0 0 5 12.5c0-.709.265-2.785 1.472-3.85.632-.559 1.463-.78 2.467-.654a.507.507 0 0 0 .301-.057c2.44-1.331 4.993-1.409 7.006-.214C17.97 8.749 19 10.534 19 12.5c0 .198.119.367.293.448l-.003.006c.369.17.71.475.71 1.546 0 .764-.872 2.5-1.5 2.5z"/><path fill="#fff" d="M6.853 17.678a6.53 6.53 0 0 0-.146-.395.437.437 0 0 0-.395-.283C5.763 17 5 15.264 5 14.5c0-1.071.298-1.376.621-1.546l-.001-.003a.506.506 0 0 0 .255-.451c0-.709.232-2.785 1.288-3.85a2.264 2.264 0 0 1 1.438-.668c-.85-.04-1.571.174-2.129.668C5.265 9.715 5 11.791 5 12.5c0 .2-.119.372-.291.451l.001.003c-.369.17-.71.475-.71 1.546 0 .764.872 2.5 1.5 2.5.192 0 .367.11.45.283.047.096.102.23.167.395C6.639 18.971 7.858 22 12 22c-3.624 0-4.691-3.029-5.147-4.322z" opacity=".2"/><path d="m19.29 12.954.003-.006A.495.495 0 0 1 19 12.5c0-1.966-1.03-3.751-2.755-4.775-1.016-.603-2.169-.88-3.376-.837a4.832 4.832 0 0 1 2.846.837c1.509 1.024 2.411 2.809 2.411 4.775 0 .198.104.367.256.448l-.003.006c.323.17.621.475.621 1.546 0 .764-.763 2.5-1.313 2.5a.437.437 0 0 0-.394.283 6.53 6.53 0 0 0-.146.395C16.691 18.971 15.624 22 12 22c4.142 0 5.361-3.029 5.883-4.322.065-.165.12-.299.167-.395A.499.499 0 0 1 18.5 17c.628 0 1.5-1.736 1.5-2.5 0-1.071-.341-1.376-.71-1.546z" opacity=".1"/><circle cx="8.5" cy="13" r="1" fill="#303c42"/><circle cx="15.5" cy="13" r="1" fill="#303c42"/><linearGradient id="a" x1="2.957" x2="20.745" y1="16.561" y2="8.266" gradientTransform="matrix(1 0 0 -1 0 24)" gradientUnits="userSpaceOnUse"><stop offset="0" stop-color="#fff" stop-opacity=".2"/><stop offset="1" stop-color="#fff" stop-opacity="0"/></linearGradient><path fill="url(#a)" d="M20.108 12.282c.163-.535.392-1.578.392-3.282 0-1.919-.199-2.902-.39-3.403l.743-.743a.5.5 0 0 0 0-.707C20.726 4.018 17.644 1 12 1c-2.188 0-3.343.735-3.717 1.029-.86.156-4.847 1.143-4.847 5.971 0 1.239.36 3.404.51 4.247C3.11 12.828 3 13.791 3 14.5c0 .958.889 3.104 2.15 3.452l.04.1C5.735 19.405 7.183 23 12 23s6.265-3.595 6.81-4.949l.04-.1c1.262-.348 2.15-2.494 2.15-3.452 0-.693-.103-1.633-.892-2.217z"/></svg>