<svg xmlns="http://www.w3.org/2000/svg" viewBox="0 0 24 24"><path fill="#303c42" d="M13 0c-1.174 0-1.861.32-2.157.502C6.163.604 1 5.274 1 11.5c0 6.345 1.976 10.082 2.06 10.237.038.07.092.13.157.175.11.076 1.197.742 5.338.992C9.797 23.748 11.01 24 12 24s2.203-.252 3.445-1.096c4.142-.25 5.228-.916 5.338-.992a.508.508 0 0 0 .157-.175C21.024 21.581 23 17.844 23 11.5 23 5.023 17.624 0 13 0z"/><path fill="#fee8d7" d="m6.121 18.373-.051-.101A.501.501 0 0 0 5.625 18C4.927 18 4 16.285 4 15.5c0-.963.233-1.309.616-1.502.728-.032 1.767-.357 2.908-.876l.007.035C6.633 13.46 6 14.172 6 15c0 1.103 1.121 2 2.5 2 1.262 0 2.297-.754 2.466-1.727.158-.105.489-.273 1.034-.273.547 0 .88.17 1.034.272.168.973 1.203 1.728 2.466 1.728 1.379 0 2.5-.897 2.5-2 0-.828-.633-1.54-1.532-1.844.009-.053.032-.101.032-.156a1.001 1.001 0 0 0-2 0c0 .055.023.103.032.156-.607.205-1.091.597-1.342 1.085-.299-.128-.679-.241-1.19-.241s-.891.113-1.189.241c-.251-.488-.735-.88-1.342-1.085.008-.053.031-.101.031-.156a.992.992 0 0 0-.327-.73c2.027-1.159 4.072-2.75 5.116-4.315.781 2.855 3.016 5.928 5.093 6.041.384.194.618.54.618 1.503 0 .785-.927 2.5-1.625 2.5a.5.5 0 0 0-.445.272l-.051.101C16.325 21.443 14.348 23 12 23s-4.325-1.557-5.879-4.627z"/><path fill="#bbdefb" d="M8.5 14c.813 0 1.5.458 1.5 1s-.687 1-1.5 1S7 15.542 7 15s.687-1 1.5-1zm7 0c.813 0 1.5.458 1.5 1s-.687 1-1.5 1-1.5-.458-1.5-1 .687-1 1.5-1z"/><path fill="#4d4d4d" d="M20.126 21.13c-.283.124-1.221.452-3.392.667.677-.712 1.344-1.633 1.966-2.835 1.348-.314 2.3-2.495 2.3-3.462 0-.881-.147-1.958-1.301-2.458A.487.487 0 0 0 19.5 13C17.649 13 15 8.878 15 6a.5.5 0 0 0-1 0c0 2.581-7.007 7-9.5 7a.487.487 0 0 0-.199.042C3.147 13.542 3 14.619 3 15.5c0 .968.952 3.148 2.3 3.462.622 1.202 1.289 2.123 1.966 2.835-2.186-.217-3.121-.547-3.391-.666C3.537 20.429 2 16.933 2 11.5c0-6.196 5.242-10 9-10a.526.526 0 0 0 .314-.111C11.319 1.385 11.828 1 13 1c4.076 0 9 4.684 9 10.5 0 5.428-1.534 8.923-1.874 9.63z"/><circle cx="7.873" cy="14.815" r=".346" fill="#fff" opacity=".2"/><circle cx="15.154" cy="14.815" r=".346" fill="#fff" opacity=".2"/><path d="M19.382 13.997c-2.078-.113-4.312-3.186-5.093-6.041-.062.093-.143.186-.212.279.74 2.773 2.623 5.653 4.383 5.762.336.194.54.54.54 1.503 0 .785-.811 2.5-1.422 2.5a.437.437 0 0 0-.39.272l-.044.101C15.785 21.443 14.054 23 12 23c2.348 0 4.326-1.557 5.879-4.627l.051-.101a.501.501 0 0 1 .445-.272C19.073 18 20 16.285 20 15.5c0-.964-.234-1.309-.618-1.503z" opacity=".1"/><path fill="#fff" d="m6.856 18.373-.044-.101a.437.437 0 0 0-.39-.272C5.811 18 5 16.285 5 15.5c0-.963.204-1.309.54-1.502.4-.02.911-.16 1.482-.389-.008-.036-.022-.07-.022-.109 0-.06.015-.115.034-.168-.945.393-1.796.638-2.417.665-.384.194-.617.54-.617 1.503 0 .785.927 2.5 1.625 2.5.187 0 .359.105.445.272l.051.101C7.674 21.443 9.652 23 12 23c-2.054 0-3.785-1.557-5.144-4.627z" opacity=".2"/><path fill="#fff" d="M2.5 12c0-6.196 5.242-10 9-10a.526.526 0 0 0 .314-.111c.005-.004.514-.389 1.686-.389 1.781 0 3.723.894 5.346 2.386C17.132 2.1 14.969 1 13 1c-1.171 0-1.68.385-1.686.389A.529.529 0 0 1 11 1.5c-3.758 0-9 3.804-9 10 0 5.432 1.537 8.929 1.875 9.632.066.029.174.071.328.121C3.686 20.051 2.5 16.774 2.5 12z" opacity=".2"/><linearGradient id="a" x1="1.677" x2="22.926" y1="16.413" y2="6.504" gradientTransform="matrix(1 0 0 -1 0 24)" gradientUnits="userSpaceOnUse"><stop offset="0" stop-color="#fff" stop-opacity=".2"/><stop offset="1" stop-color="#fff" stop-opacity="0"/></linearGradient><path fill="url(#a)" d="M13 0c-1.174 0-1.861.32-2.157.502C6.163.604 1 5.274 1 11.5c0 6.345 1.976 10.082 2.06 10.237.038.07.092.13.157.175.11.076 1.197.742 5.338.992C9.797 23.748 11.01 24 12 24s2.203-.252 3.445-1.096c4.142-.25 5.228-.916 5.338-.992a.508.508 0 0 0 .157-.175C21.024 21.581 23 17.844 23 11.5 23 5.023 17.624 0 13 0z"/></svg>